<svg id="Outdated" xmlns="http://www.w3.org/2000/svg" viewBox="0 0 1024 1024">
  <defs>
    <style>
      .cls-1 {
        fill: #ffba00;
      }
      .cls-2 {
        fill: #fff;
      }
      .cls-3 {
        fill: #f9f453;
      }
      .cls-4 {
        fill: #202020;
      }
    </style>
  </defs>
  <title>outdated</title>
  <g id="Background">
    <rect class="cls-1" width="1024" height="1024" rx="96" ry="96" />
  </g>
  <g id="Rings">
    <path
      class="cls-2"
      d="M510,325C261,325,60,408,60,510S261,695,510,695s450-83,450-185S759,325,510,325Zm0,330c-225,0-407-65-407-145S285,365,510,365s408,65,408,145S735,655,510,655Z"
    />
    <path
      class="cls-2"
      d="M670,417C546,202,373,69,285,120s-59,267,65,482S647,951,735,900,794,633,670,417ZM384,583C272,388,237,197,306,157s217,86,329,280,148,385,78,425S497,777,384,583Z"
    />
    <g id="BLOCKER">
      <rect
        class="cls-1"
        x="564"
        y="572"
        width="315"
        height="397.12"
        transform="translate(652 -283) rotate(39)"
      />
      <rect
        class="cls-1"
        x="685"
        y="379"
        width="283"
        height="360.81"
        transform="translate(255 -262) rotate(21)"
      />
    </g>
    <path
      class="cls-2"
      d="M670,603c124-215,153-431,65-482S474,202,350,417,197,849,285,900,546,818,670,603ZM384,437C497,243,644,117,714,157s34,231-78,425S376,903,306,863,272,632,384,437Z"
    />
  </g>
  <g id="Circle"><circle class="cls-2" cx="512" cy="512" r="80" /></g>
  <g id="Feather">
    <!-- Creative Commons feature icon https://www.svgrepo.com/svg/5971/feather -->
    <path
      class="cls-4"
      transform="translate(585,585)"
      d="M372.888,3.417c-1.946-1.946-5.239-2.739-11.368-2.739c-27.119,0-107.25,15.936-169.59,52.773l-2.123,1.254l-9.154,75.342
        l-21.625-54.922l-5.274,4.101c-8.973,6.976-17.139,14.13-24.271,21.262c-34.747,34.747-58.945,73.784-68.136,109.918
        c-7.562,29.727-4.785,56.001,7.688,75.652L4.393,350.699c-5.858,5.858-5.858,15.355,0,21.213c2.929,2.929,6.768,4.394,10.606,4.394
        s7.678-1.464,10.606-4.394l64.652-64.652c12.327,7.798,27.362,11.868,44.258,11.869c0.002,0,0,0,0.003,0
        c43.844,0,95.348-26.356,141.297-72.306c0.854-0.854,1.701-1.728,2.589-2.646l5.212-5.384l-60.929-23.991l87.707-10.657l1.275-1.917
        c12.748-19.177,24.504-40.653,34.943-63.832l2.154-4.784l-44.544-17.539l54.349-6.604l1.057-2.866
        c7.921-21.486,13.639-44.894,16.101-65.91C377.379,26.633,378.223,8.752,372.888,3.417z"
    />
  </g>
</svg>
